<svg t="1564649074698" class="icon" viewBox="0 0 1024 1024" version="1.1" xmlns="http://www.w3.org/2000/svg" p-id="3251" width="28" height="28">
<path d="M512 960C265.6 960 64 758.4 64 512S265.6 64 512 64s448 201.6 448 448-201.6 448-448 448z m0-832c-211.2 0-384 172.8-384 384s172.8 384 384 384 384-172.8 384-384-172.8-384-384-384z m-49.6 828.8c-12.8 0-25.6-8-30.4-20.8-48-126.4-72-272-72-424s25.6-297.6 72-424c6.4-16 24-25.6 41.6-19.2 16 6.4 25.6 24 19.2 41.6C448 228.8 425.6 368 425.6 512s24 283.2 68.8 401.6c6.4 16-1.6 35.2-19.2 41.6-4.8 1.6-8 1.6-12.8 1.6z m326.4-102.4c-4.8 0-9.6-1.6-14.4-3.2-168-84.8-265.6-208-265.6-337.6 0-131.2 96-254.4 265.6-337.6 16-8 35.2-1.6 43.2 14.4s1.6 35.2-14.4 43.2C657.6 304 574.4 406.4 574.4 512c0 105.6 83.2 208 228.8 281.6 16 8 22.4 27.2 14.4 43.2-6.4 11.2-17.6 17.6-28.8 17.6zM512 603.2c-152 0-300.8-25.6-427.2-73.6-16-6.4-25.6-24-19.2-41.6 6.4-16 24-25.6 41.6-19.2 120 44.8 259.2 68.8 404.8 68.8s284.8-24 404.8-68.8c16-6.4 35.2 1.6 41.6 19.2 6.4 16-1.6 35.2-19.2 41.6-126.4 48-275.2 73.6-427.2 73.6z m-363.2 144c-8 0-16-3.2-22.4-9.6-12.8-12.8-12.8-32 0-44.8 56-56 86.4-118.4 86.4-180.8 0-62.4-30.4-124.8-86.4-180.8-12.8-12.8-12.8-32 0-44.8 12.8-12.8 32-12.8 44.8 0C240 353.6 276.8 432 276.8 512s-36.8 158.4-104 225.6c-6.4 6.4-14.4 9.6-24 9.6z" p-id="3252">
</path>
</svg>